<?xml version="1.0" standalone="no"?>
<!DOCTYPE svg PUBLIC "-//W3C//DTD SVG 20010904//EN"
 "http://www.w3.org/TR/2001/REC-SVG-20010904/DTD/svg10.dtd">
<svg version="1.0" xmlns="http://www.w3.org/2000/svg"
 width="1299.000000pt" height="1299.000000pt" viewBox="0 0 1299.000000 1299.000000"
 preserveAspectRatio="xMidYMid meet">
<metadata>
Created by potrace 1.11, written by Peter Selinger 2001-2013
</metadata>
<g transform="translate(0.000000,1299.000000) scale(0.100000,-0.100000)"
fill="#000000" stroke="none">
<path d="M3503 11237 c3 -7 76 -112 164 -232 209 -288 391 -546 713 -1010 328
-473 426 -607 608 -838 80 -100 183 -234 230 -297 220 -296 693 -988 727
-1063 13 -28 29 -84 35 -124 39 -247 -133 -604 -444 -921 l-111 -113 -345 -93
-345 -93 -60 18 c-221 66 -735 157 -1315 233 -503 66 -1655 185 -1668 172 -2
-3 6 -10 19 -15 82 -31 422 -192 523 -247 132 -72 287 -171 381 -243 85 -65
411 -336 464 -385 111 -105 130 -174 67 -244 -47 -51 -93 -75 -341 -175 -416
-168 -1049 -380 -1738 -583 -74 -21 -123 -40 -115 -44 13 -7 230 -22 593 -41
309 -16 863 -13 1190 5 580 33 831 58 1155 114 307 53 421 48 622 -28 124 -46
218 -134 218 -202 0 -13 -25 -87 -56 -163 -67 -168 -211 -567 -247 -685 -42
-139 -75 -283 -112 -495 -45 -252 -60 -315 -96 -391 -104 -222 -578 -572
-1304 -964 -201 -109 -756 -385 -897 -446 -37 -16 -68 -32 -68 -36 0 -3 33
-12 73 -18 114 -20 489 -7 727 25 1202 158 2955 636 4245 1157 807 327 1394
655 1703 952 163 156 226 262 277 457 69 271 96 475 96 734 l0 181 112 43 c62
24 232 83 379 132 146 48 307 108 356 133 200 100 437 280 618 468 107 111
153 174 383 513 l142 210 237 142 c130 79 238 147 240 152 1 4 -18 31 -43 59
-65 73 -126 99 -260 112 -168 18 -188 24 -361 120 -203 113 -317 166 -528 247
-198 75 -290 98 -441 113 -245 23 -360 10 -593 -65 -75 -24 -138 -42 -140 -41
-6 7 54 131 117 239 147 254 155 382 41 612 -299 602 -1394 1278 -3416 2105
-736 302 -1575 605 -2194 794 -210 64 -222 67 -217 53z"/>
</g>
</svg>
